<mxfile host="Electron" agent="Mozilla/5.0 (Windows NT 10.0; Win64; x64) AppleWebKit/537.36 (KHTML, like Gecko) draw.io/27.0.9 Chrome/134.0.6998.205 Electron/35.4.0 Safari/537.36" version="27.0.9">
  <diagram name="Page-1" id="pYAdrcVZM6nz8qfMQnD_">
    <mxGraphModel dx="786" dy="516" grid="1" gridSize="10" guides="1" tooltips="1" connect="1" arrows="1" fold="1" page="1" pageScale="1" pageWidth="850" pageHeight="1100" math="0" shadow="0">
      <root>
        <mxCell id="0" />
        <mxCell id="1" parent="0" />
        <mxCell id="izMFIutTzNMhQTklgD56-1" value="" style="rounded=0;whiteSpace=wrap;html=1;" parent="1" vertex="1">
          <mxGeometry x="60" y="110" width="120" height="320" as="geometry" />
        </mxCell>
        <mxCell id="izMFIutTzNMhQTklgD56-2" value="sources" style="rounded=0;whiteSpace=wrap;html=1;strokeColor=none;" parent="1" vertex="1">
          <mxGeometry x="90" y="100" width="60" height="30" as="geometry" />
        </mxCell>
        <mxCell id="izMFIutTzNMhQTklgD56-4" value="" style="rounded=0;whiteSpace=wrap;html=1;fillColor=none;" parent="1" vertex="1">
          <mxGeometry x="230" y="110" width="495" height="320" as="geometry" />
        </mxCell>
        <mxCell id="izMFIutTzNMhQTklgD56-5" value="Data Warehouse" style="rounded=0;whiteSpace=wrap;html=1;fillColor=default;strokeColor=none;" parent="1" vertex="1">
          <mxGeometry x="425" y="100" width="85" height="30" as="geometry" />
        </mxCell>
        <mxCell id="izMFIutTzNMhQTklgD56-6" value="Bronze" style="rounded=0;whiteSpace=wrap;html=1;fillColor=#a0522d;fontColor=#ffffff;strokeColor=#6D1F00;" parent="1" vertex="1">
          <mxGeometry x="250" y="160" width="140" height="20" as="geometry" />
        </mxCell>
        <mxCell id="izMFIutTzNMhQTklgD56-7" value="" style="rounded=0;whiteSpace=wrap;html=1;fillColor=none;fontColor=#ffffff;strokeColor=#6D1F00;" parent="1" vertex="1">
          <mxGeometry x="250" y="190" width="140" height="220" as="geometry" />
        </mxCell>
        <mxCell id="izMFIutTzNMhQTklgD56-9" value="Gold" style="rounded=0;whiteSpace=wrap;html=1;fillColor=#f0a30a;strokeColor=#BD7000;fontColor=#000000;" parent="1" vertex="1">
          <mxGeometry x="570" y="160" width="130" height="20" as="geometry" />
        </mxCell>
        <mxCell id="izMFIutTzNMhQTklgD56-10" value="Silver" style="rounded=0;whiteSpace=wrap;html=1;fillColor=#f5f5f5;strokeColor=#666666;fontColor=#333333;" parent="1" vertex="1">
          <mxGeometry x="410" y="160" width="140" height="20" as="geometry" />
        </mxCell>
        <mxCell id="izMFIutTzNMhQTklgD56-11" value="" style="rounded=0;whiteSpace=wrap;html=1;fillColor=none;fontColor=#333333;strokeColor=#666666;" parent="1" vertex="1">
          <mxGeometry x="410" y="190" width="140" height="220" as="geometry" />
        </mxCell>
        <mxCell id="izMFIutTzNMhQTklgD56-12" value="" style="rounded=0;whiteSpace=wrap;html=1;fillColor=none;fontColor=#000000;strokeColor=#BD7000;" parent="1" vertex="1">
          <mxGeometry x="570" y="190" width="130" height="220" as="geometry" />
        </mxCell>
        <mxCell id="izMFIutTzNMhQTklgD56-53" style="edgeStyle=orthogonalEdgeStyle;rounded=0;orthogonalLoop=1;jettySize=auto;html=1;entryX=0;entryY=0.5;entryDx=0;entryDy=0;fontFamily=Helvetica;fontSize=12;fontColor=default;" parent="1" source="izMFIutTzNMhQTklgD56-21" target="izMFIutTzNMhQTklgD56-33" edge="1">
          <mxGeometry relative="1" as="geometry">
            <Array as="points">
              <mxPoint x="200" y="230" />
              <mxPoint x="200" y="210" />
            </Array>
          </mxGeometry>
        </mxCell>
        <mxCell id="izMFIutTzNMhQTklgD56-21" value="" style="sketch=0;outlineConnect=0;fontColor=#333333;fillColor=#f5f5f5;strokeColor=#666666;dashed=0;verticalLabelPosition=bottom;verticalAlign=top;align=center;html=1;fontSize=12;fontStyle=0;aspect=fixed;pointerEvents=1;shape=mxgraph.aws4.folder;" parent="1" vertex="1">
          <mxGeometry x="80.07" y="200" width="54.93" height="50" as="geometry" />
        </mxCell>
        <mxCell id="izMFIutTzNMhQTklgD56-56" style="edgeStyle=orthogonalEdgeStyle;rounded=0;orthogonalLoop=1;jettySize=auto;html=1;exitX=0.5;exitY=0;exitDx=0;exitDy=0;exitPerimeter=0;entryX=0;entryY=0.5;entryDx=0;entryDy=0;fontFamily=Helvetica;fontSize=12;fontColor=default;" parent="1" source="izMFIutTzNMhQTklgD56-22" target="izMFIutTzNMhQTklgD56-34" edge="1">
          <mxGeometry relative="1" as="geometry">
            <Array as="points">
              <mxPoint x="200" y="230" />
              <mxPoint x="200" y="245" />
            </Array>
          </mxGeometry>
        </mxCell>
        <mxCell id="izMFIutTzNMhQTklgD56-57" style="edgeStyle=orthogonalEdgeStyle;rounded=0;orthogonalLoop=1;jettySize=auto;html=1;exitX=0.5;exitY=0;exitDx=0;exitDy=0;exitPerimeter=0;entryX=0;entryY=0.75;entryDx=0;entryDy=0;fontFamily=Helvetica;fontSize=12;fontColor=default;" parent="1" source="izMFIutTzNMhQTklgD56-22" target="izMFIutTzNMhQTklgD56-36" edge="1">
          <mxGeometry relative="1" as="geometry">
            <Array as="points">
              <mxPoint x="200" y="230" />
              <mxPoint x="200" y="280" />
              <mxPoint x="253" y="280" />
            </Array>
          </mxGeometry>
        </mxCell>
        <mxCell id="izMFIutTzNMhQTklgD56-22" value="" style="whiteSpace=wrap;html=1;shape=mxgraph.basic.document" parent="1" vertex="1">
          <mxGeometry x="120" y="230" width="30" height="30" as="geometry" />
        </mxCell>
        <mxCell id="izMFIutTzNMhQTklgD56-59" value="" style="edgeStyle=orthogonalEdgeStyle;rounded=0;orthogonalLoop=1;jettySize=auto;html=1;fontFamily=Helvetica;fontSize=12;fontColor=default;" parent="1" source="izMFIutTzNMhQTklgD56-24" target="izMFIutTzNMhQTklgD56-35" edge="1">
          <mxGeometry relative="1" as="geometry">
            <Array as="points">
              <mxPoint x="200" y="340" />
              <mxPoint x="200" y="320" />
            </Array>
          </mxGeometry>
        </mxCell>
        <mxCell id="izMFIutTzNMhQTklgD56-61" style="edgeStyle=orthogonalEdgeStyle;rounded=0;orthogonalLoop=1;jettySize=auto;html=1;entryX=0;entryY=0.75;entryDx=0;entryDy=0;fontFamily=Helvetica;fontSize=12;fontColor=default;" parent="1" source="izMFIutTzNMhQTklgD56-24" target="izMFIutTzNMhQTklgD56-38" edge="1">
          <mxGeometry relative="1" as="geometry">
            <Array as="points">
              <mxPoint x="200" y="340" />
              <mxPoint x="200" y="395" />
            </Array>
          </mxGeometry>
        </mxCell>
        <mxCell id="izMFIutTzNMhQTklgD56-24" value="" style="sketch=0;outlineConnect=0;fontColor=#333333;fillColor=#f5f5f5;strokeColor=#666666;dashed=0;verticalLabelPosition=bottom;verticalAlign=top;align=center;html=1;fontSize=12;fontStyle=0;aspect=fixed;pointerEvents=1;shape=mxgraph.aws4.folder;" parent="1" vertex="1">
          <mxGeometry x="80.07" y="310" width="54.93" height="50" as="geometry" />
        </mxCell>
        <mxCell id="izMFIutTzNMhQTklgD56-60" style="edgeStyle=orthogonalEdgeStyle;rounded=0;orthogonalLoop=1;jettySize=auto;html=1;entryX=0;entryY=0.75;entryDx=0;entryDy=0;fontFamily=Helvetica;fontSize=12;fontColor=default;exitX=0.5;exitY=0;exitDx=0;exitDy=0;exitPerimeter=0;" parent="1" source="izMFIutTzNMhQTklgD56-23" target="izMFIutTzNMhQTklgD56-37" edge="1">
          <mxGeometry relative="1" as="geometry">
            <mxPoint x="210" y="380" as="sourcePoint" />
            <Array as="points">
              <mxPoint x="200" y="340" />
              <mxPoint x="200" y="360" />
            </Array>
          </mxGeometry>
        </mxCell>
        <mxCell id="izMFIutTzNMhQTklgD56-23" value="" style="whiteSpace=wrap;html=1;shape=mxgraph.basic.document" parent="1" vertex="1">
          <mxGeometry x="120" y="340" width="30" height="30" as="geometry" />
        </mxCell>
        <mxCell id="izMFIutTzNMhQTklgD56-25" value="CRM" style="rounded=0;whiteSpace=wrap;html=1;strokeColor=none;" parent="1" vertex="1">
          <mxGeometry x="100" y="270" width="40" height="20" as="geometry" />
        </mxCell>
        <mxCell id="izMFIutTzNMhQTklgD56-26" value="ERP" style="rounded=0;whiteSpace=wrap;html=1;strokeColor=none;" parent="1" vertex="1">
          <mxGeometry x="100" y="380" width="50" height="20" as="geometry" />
        </mxCell>
        <mxCell id="YKWA1Kg8j7n2IfKYjBY4-1" style="edgeStyle=orthogonalEdgeStyle;rounded=0;orthogonalLoop=1;jettySize=auto;html=1;exitX=1;exitY=0.5;exitDx=0;exitDy=0;entryX=0;entryY=0.5;entryDx=0;entryDy=0;" parent="1" source="izMFIutTzNMhQTklgD56-33" target="izMFIutTzNMhQTklgD56-42" edge="1">
          <mxGeometry relative="1" as="geometry" />
        </mxCell>
        <mxCell id="izMFIutTzNMhQTklgD56-33" value="bronze.crm_cust_info" style="rounded=0;whiteSpace=wrap;html=1;fillStyle=zigzag-line;align=center;verticalAlign=middle;fontFamily=Helvetica;fontSize=12;fontColor=default;fillColor=none;gradientColor=#ffa500;" parent="1" vertex="1">
          <mxGeometry x="255" y="200" width="130" height="20" as="geometry" />
        </mxCell>
        <mxCell id="YKWA1Kg8j7n2IfKYjBY4-2" style="edgeStyle=orthogonalEdgeStyle;rounded=0;orthogonalLoop=1;jettySize=auto;html=1;exitX=1;exitY=0.5;exitDx=0;exitDy=0;entryX=0;entryY=0.5;entryDx=0;entryDy=0;" parent="1" source="izMFIutTzNMhQTklgD56-34" target="izMFIutTzNMhQTklgD56-43" edge="1">
          <mxGeometry relative="1" as="geometry" />
        </mxCell>
        <mxCell id="izMFIutTzNMhQTklgD56-34" value="bronze.crm_prd_info" style="rounded=0;whiteSpace=wrap;html=1;fillStyle=zigzag-line;align=center;verticalAlign=middle;fontFamily=Helvetica;fontSize=12;fontColor=default;fillColor=none;gradientColor=#ffa500;" parent="1" vertex="1">
          <mxGeometry x="252.5" y="235" width="125" height="20" as="geometry" />
        </mxCell>
        <mxCell id="YKWA1Kg8j7n2IfKYjBY4-4" style="edgeStyle=orthogonalEdgeStyle;rounded=0;orthogonalLoop=1;jettySize=auto;html=1;exitX=1;exitY=0.5;exitDx=0;exitDy=0;entryX=0;entryY=0.5;entryDx=0;entryDy=0;" parent="1" source="izMFIutTzNMhQTklgD56-35" target="izMFIutTzNMhQTklgD56-45" edge="1">
          <mxGeometry relative="1" as="geometry" />
        </mxCell>
        <mxCell id="izMFIutTzNMhQTklgD56-35" value="bronze.erp_cust_az12" style="rounded=0;whiteSpace=wrap;html=1;fillStyle=zigzag-line;align=center;verticalAlign=middle;fontFamily=Helvetica;fontSize=12;fontColor=default;fillColor=none;gradientColor=#ffa500;" parent="1" vertex="1">
          <mxGeometry x="252.5" y="310" width="130" height="20" as="geometry" />
        </mxCell>
        <mxCell id="YKWA1Kg8j7n2IfKYjBY4-3" style="edgeStyle=orthogonalEdgeStyle;rounded=0;orthogonalLoop=1;jettySize=auto;html=1;exitX=1;exitY=0.5;exitDx=0;exitDy=0;entryX=0;entryY=0.5;entryDx=0;entryDy=0;" parent="1" source="izMFIutTzNMhQTklgD56-36" target="izMFIutTzNMhQTklgD56-44" edge="1">
          <mxGeometry relative="1" as="geometry" />
        </mxCell>
        <mxCell id="izMFIutTzNMhQTklgD56-36" value="bronze.crm_sales_details" style="rounded=0;whiteSpace=wrap;html=1;fillStyle=zigzag-line;align=center;verticalAlign=middle;fontFamily=Helvetica;fontSize=11;fontColor=default;fillColor=none;gradientColor=#ffa500;" parent="1" vertex="1">
          <mxGeometry x="252.5" y="270" width="130" height="20" as="geometry" />
        </mxCell>
        <mxCell id="YKWA1Kg8j7n2IfKYjBY4-5" style="edgeStyle=orthogonalEdgeStyle;rounded=0;orthogonalLoop=1;jettySize=auto;html=1;exitX=1;exitY=0.5;exitDx=0;exitDy=0;" parent="1" source="izMFIutTzNMhQTklgD56-37" target="izMFIutTzNMhQTklgD56-46" edge="1">
          <mxGeometry relative="1" as="geometry" />
        </mxCell>
        <mxCell id="izMFIutTzNMhQTklgD56-37" value="bronze.erp_loc_a101" style="rounded=0;whiteSpace=wrap;html=1;fillStyle=zigzag-line;align=center;verticalAlign=middle;fontFamily=Helvetica;fontSize=12;fontColor=default;fillColor=none;gradientColor=#ffa500;" parent="1" vertex="1">
          <mxGeometry x="255" y="345" width="130" height="20" as="geometry" />
        </mxCell>
        <mxCell id="YKWA1Kg8j7n2IfKYjBY4-7" style="edgeStyle=orthogonalEdgeStyle;rounded=0;orthogonalLoop=1;jettySize=auto;html=1;exitX=1;exitY=0.5;exitDx=0;exitDy=0;" parent="1" source="izMFIutTzNMhQTklgD56-38" target="izMFIutTzNMhQTklgD56-47" edge="1">
          <mxGeometry relative="1" as="geometry" />
        </mxCell>
        <mxCell id="izMFIutTzNMhQTklgD56-38" value="bronze.erp_px_cat_g1v2" style="rounded=0;whiteSpace=wrap;html=1;fillStyle=zigzag-line;align=center;verticalAlign=middle;fontFamily=Helvetica;fontSize=11;fontColor=default;fillColor=none;gradientColor=#ffa500;" parent="1" vertex="1">
          <mxGeometry x="255" y="380" width="130" height="20" as="geometry" />
        </mxCell>
        <mxCell id="Z3NVsvBQqy66Ki0uh__5-8" style="rounded=0;orthogonalLoop=1;jettySize=auto;html=1;exitX=1;exitY=0.5;exitDx=0;exitDy=0;entryX=0;entryY=0.5;entryDx=0;entryDy=0;" edge="1" parent="1" source="izMFIutTzNMhQTklgD56-42" target="Z3NVsvBQqy66Ki0uh__5-3">
          <mxGeometry relative="1" as="geometry" />
        </mxCell>
        <mxCell id="izMFIutTzNMhQTklgD56-42" value="bronze.crm_cust_info" style="rounded=0;whiteSpace=wrap;html=1;fillStyle=zigzag-line;align=center;verticalAlign=middle;fontFamily=Helvetica;fontSize=12;fontColor=default;fillColor=none;gradientColor=#ffa500;" parent="1" vertex="1">
          <mxGeometry x="412.5" y="200" width="130" height="20" as="geometry" />
        </mxCell>
        <mxCell id="Z3NVsvBQqy66Ki0uh__5-9" style="rounded=0;orthogonalLoop=1;jettySize=auto;html=1;exitX=1;exitY=0.5;exitDx=0;exitDy=0;entryX=0;entryY=0.5;entryDx=0;entryDy=0;" edge="1" parent="1" source="izMFIutTzNMhQTklgD56-43" target="Z3NVsvBQqy66Ki0uh__5-2">
          <mxGeometry relative="1" as="geometry" />
        </mxCell>
        <mxCell id="izMFIutTzNMhQTklgD56-43" value="bronze.crm_prd_info" style="rounded=0;whiteSpace=wrap;html=1;fillStyle=zigzag-line;align=center;verticalAlign=middle;fontFamily=Helvetica;fontSize=12;fontColor=default;fillColor=none;gradientColor=#ffa500;" parent="1" vertex="1">
          <mxGeometry x="415" y="235" width="125" height="20" as="geometry" />
        </mxCell>
        <mxCell id="Z3NVsvBQqy66Ki0uh__5-7" style="rounded=0;orthogonalLoop=1;jettySize=auto;html=1;exitX=1;exitY=0.5;exitDx=0;exitDy=0;entryX=0;entryY=0.75;entryDx=0;entryDy=0;" edge="1" parent="1" source="izMFIutTzNMhQTklgD56-44" target="Z3NVsvBQqy66Ki0uh__5-1">
          <mxGeometry relative="1" as="geometry" />
        </mxCell>
        <mxCell id="izMFIutTzNMhQTklgD56-44" value="bronze.crm_sales_details" style="rounded=0;whiteSpace=wrap;html=1;fillStyle=zigzag-line;align=center;verticalAlign=middle;fontFamily=Helvetica;fontSize=11;fontColor=default;fillColor=none;gradientColor=#ffa500;" parent="1" vertex="1">
          <mxGeometry x="415" y="270" width="130" height="20" as="geometry" />
        </mxCell>
        <mxCell id="Z3NVsvBQqy66Ki0uh__5-10" style="rounded=0;orthogonalLoop=1;jettySize=auto;html=1;exitX=1;exitY=0.25;exitDx=0;exitDy=0;entryX=0;entryY=0.5;entryDx=0;entryDy=0;" edge="1" parent="1" source="izMFIutTzNMhQTklgD56-45" target="Z3NVsvBQqy66Ki0uh__5-3">
          <mxGeometry relative="1" as="geometry" />
        </mxCell>
        <mxCell id="izMFIutTzNMhQTklgD56-45" value="bronze.erp_cust_az12" style="rounded=0;whiteSpace=wrap;html=1;fillStyle=zigzag-line;align=center;verticalAlign=middle;fontFamily=Helvetica;fontSize=12;fontColor=default;fillColor=none;gradientColor=#ffa500;" parent="1" vertex="1">
          <mxGeometry x="415" y="310" width="130" height="20" as="geometry" />
        </mxCell>
        <mxCell id="Z3NVsvBQqy66Ki0uh__5-11" style="rounded=0;orthogonalLoop=1;jettySize=auto;html=1;exitX=1;exitY=0.5;exitDx=0;exitDy=0;" edge="1" parent="1" source="izMFIutTzNMhQTklgD56-46">
          <mxGeometry relative="1" as="geometry">
            <mxPoint x="580" y="330" as="targetPoint" />
          </mxGeometry>
        </mxCell>
        <mxCell id="izMFIutTzNMhQTklgD56-46" value="bronze.erp_loc_a101" style="rounded=0;whiteSpace=wrap;html=1;fillStyle=zigzag-line;align=center;verticalAlign=middle;fontFamily=Helvetica;fontSize=12;fontColor=default;fillColor=none;gradientColor=#ffa500;" parent="1" vertex="1">
          <mxGeometry x="412.5" y="345" width="130" height="20" as="geometry" />
        </mxCell>
        <mxCell id="Z3NVsvBQqy66Ki0uh__5-12" style="rounded=0;orthogonalLoop=1;jettySize=auto;html=1;exitX=1;exitY=0.5;exitDx=0;exitDy=0;entryX=0;entryY=0.25;entryDx=0;entryDy=0;" edge="1" parent="1" source="izMFIutTzNMhQTklgD56-47" target="Z3NVsvBQqy66Ki0uh__5-2">
          <mxGeometry relative="1" as="geometry" />
        </mxCell>
        <mxCell id="izMFIutTzNMhQTklgD56-47" value="bronze.erp_px_cat_g1v2" style="rounded=0;whiteSpace=wrap;html=1;fillStyle=zigzag-line;align=center;verticalAlign=middle;fontFamily=Helvetica;fontSize=11;fontColor=default;fillColor=none;gradientColor=#ffa500;" parent="1" vertex="1">
          <mxGeometry x="412.5" y="380" width="130" height="20" as="geometry" />
        </mxCell>
        <mxCell id="Z3NVsvBQqy66Ki0uh__5-1" value="fact_sales" style="rounded=0;whiteSpace=wrap;html=1;fillStyle=zigzag-line;align=center;verticalAlign=middle;fontFamily=Helvetica;fontSize=12;fontColor=default;fillColor=none;gradientColor=#ffa500;" vertex="1" parent="1">
          <mxGeometry x="597.5" y="220" width="70" height="20" as="geometry" />
        </mxCell>
        <mxCell id="Z3NVsvBQqy66Ki0uh__5-2" value="dim_products" style="rounded=0;whiteSpace=wrap;html=1;fillStyle=zigzag-line;align=center;verticalAlign=middle;fontFamily=Helvetica;fontSize=12;fontColor=default;fillColor=none;gradientColor=#ffa500;" vertex="1" parent="1">
          <mxGeometry x="587.5" y="280" width="90" height="20" as="geometry" />
        </mxCell>
        <mxCell id="Z3NVsvBQqy66Ki0uh__5-3" value="dim_customers" style="rounded=0;whiteSpace=wrap;html=1;fillStyle=zigzag-line;align=center;verticalAlign=middle;fontFamily=Helvetica;fontSize=12;fontColor=default;fillColor=none;gradientColor=#ffa500;" vertex="1" parent="1">
          <mxGeometry x="585" y="325" width="100" height="20" as="geometry" />
        </mxCell>
      </root>
    </mxGraphModel>
  </diagram>
</mxfile>
